inDegrees=yes
name=ik_S41_A05_T03
DataType=double
version=3
OpenSimVersion=4.3-2021-08-27-4bc7ad9
endheader
time	pelvis_tilt	pelvis_list	pelvis_rotation	pelvis_tx	pelvis_ty	pelvis_tz	hip_flexion_r	hip_adduction_r	hip_rotation_r	knee_angle_r	knee_angle_r_beta	ankle_angle_r	subtalar_angle_r	mtp_angle_r	hip_flexion_l	hip_adduction_l	hip_rotation_l	knee_angle_l	knee_angle_l_beta	ankle_angle_l	subtalar_angle_l	mtp_angle_l	lumbar_extension	lumbar_bending	lumbar_rotation	arm_flex_r	arm_add_r	arm_rot_r	elbow_flex_r	pro_sup_r	wrist_flex_r	wrist_dev_r	arm_flex_l	arm_add_l	arm_rot_l	elbow_flex_l	pro_sup_l	wrist_flex_l	wrist_dev_l
4.519999999999992	-7.365784371761013	-6.545188262188887	37.6196935916668	0	0.9399999999999999	0	27.51567016936282	-8.90006053429312	-7.997795758448639	32.33455668361358	0.5643444763017953	0	0	0	27.51567016936282	-8.90006053429312	-7.997795758448639	32.33455668361358	0.5643444763017953	0	0	0	-8.607033586841029	-4.216582343682431	5.135841514029401	74.47194927383362	2.173051020538225	9.438503090555596	31.24534320480915	77.98628158559926	0	0	28.76055611321242	2.802921252903726	10.7240795378236	16.38271457359292	80.89469299638836	0	0
4.539999999999991	-7.334723489933859	-6.585357143363774	38.01025783317708	0	0.9399999999999999	0	27.63943571244391	-8.918131166125963	-8.022175676114886	32.48244927727461	0.5669256890004944	0	0	0	27.63943571244391	-8.918131166125963	-8.022175676114886	32.48244927727461	0.5669256890004944	0	0	0	-8.635222153265632	-4.178207467074144	4.819262190850796	74.92752067464157	4.178238104947024	11.93692840912155	32.24954147953171	77.5053480336899	0	0	28.74283229855556	2.782314768914006	11.12066221030667	16.45334619175789	80.67285453557652	0	0
4.559999999999991	-7.287889391547051	-6.629650157961908	38.39688162227532	0	0.9399999999999999	0	27.64740804183326	-8.919777522131669	-8.024107155076637	32.48988095088317	0.5670553961738973	0	0	0	27.64740804183326	-8.919777522131669	-8.024107155076637	32.48988095088317	0.5670553961738973	0	0	0	-8.646733229224209	-4.18567513215921	4.573999959897354	75.44174879801253	6.049909984883049	13.69645632951698	32.46081268937688	76.78393468309966	0	0	28.69997087954687	2.756927157139887	11.54444656880172	16.50926177895516	80.52148701881423	0	0
4.57999999999999	-7.250544300249427	-6.680535583754035	38.74055717550806	0	0.9399999999999999	0	27.65349937746546	-8.921033379054849	-8.025581619214844	32.49556347397628	0.5671545749116927	0	0	0	27.65349937746546	-8.921033379054849	-8.025581619214844	32.49556347397628	0.5671545749116927	0	0	0	-8.663587152352523	-4.214152778307838	4.415432682563418	76.00015191933676	7.784553168634638	14.5436030325066	32.48763232088786	76.5648705601748	0	0	28.7167676767693	2.768233206490333	11.89445086289903	16.5535602514844	80.41249760680098	0	0
4.59999999999999	-7.220983580094569	-6.731122838388385	39.06911814028039	0	0.9399999999999999	0	27.66011063273233	-8.922396111605533	-8.027181908454754	32.50172842232356	0.5672621735585682	0	0	0	27.66011063273233	-8.922396111605533	-8.027181908454754	32.50172842232356	0.5672621735585682	0	0	0	-8.684176205657984	-4.244386450204685	4.290033926114219	76.72856771895022	9.511511606584476	14.73470069716307	32.09987895203961	76.74211134027884	0	0	28.76189251328855	2.824666533395084	12.12361080292991	16.56124570163814	80.3255325568245	0	0
4.619999999999989	-7.196874434375574	-6.788233650534645	39.41464216049345	0	0.9399999999999999	0	27.66869042025129	-8.924165059242583	-8.029259356929014	32.50972100555153	0.567401670451636	0	0	0	27.66869042025129	-8.924165059242583	-8.029259356929014	32.50972100555153	0.567401670451636	0	0	0	-8.710747980253462	-4.283774332790796	4.198996335428377	77.46291467589292	11.16121633771269	14.82880400828288	31.46082610526779	77.03216136392155	0	0	28.82691470466529	2.884683212783329	12.3327390199852	16.52007397728939	80.22757572724746	0	0
4.639999999999989	-7.166397387642988	-6.833736877310285	39.75730952793897	0	0.9399999999999999	0	27.67475976933153	-8.925414181776526	-8.030727529832285	32.51537966577364	0.5675004327037634	0	0	0	27.67475976933153	-8.925414181776526	-8.030727529832285	32.51537966577364	0.5675004327037634	0	0	0	-8.724599063495189	-4.318109956000936	4.106172250139359	77.96147498261485	12.82096647084865	15.33772889434323	30.92965992360086	76.82297744034474	0	0	28.94277045664222	2.965169488930973	12.42621122426725	16.46150716939541	80.13789067901099	0	0
4.659999999999989	-7.152283133603651	-6.864716883789235	40.02910001768071	0	0.9399999999999999	0	27.68119185091424	-8.926737118411625	-8.032283029867013	32.52137613075655	0.5676050907611957	0	0	0	27.68119185091424	-8.926737118411625	-8.032283029867013	32.52137613075655	0.5676050907611957	0	0	0	-8.747956366629984	-4.316003510526502	3.954285742323124	78.30308260391431	14.46941170887329	16.34542799196817	30.14449155700117	76.35420738392492	0	0	29.04381130575824	3.006909711080882	12.35151885368826	16.42022205830177	80.10989681510267	0	0
4.679999999999988	-7.080427369546458	-6.970446269641046	40.58148320688004	0	0.9399999999999999	0	27.74986631029413	-8.936842422390402	-8.045869924852374	32.60287443998346	0.5690275045920138	0	0	0	27.74986631029413	-8.936842422390402	-8.045869924852374	32.60287443998346	0.5690275045920138	0	0	0	-8.757963520667676	-4.449919567390066	3.998449058393351	78.09495908669658	16.44199371494697	17.93238906953966	29.6280754900755	76.01624532526756	0	0	29.10340305003772	3.053334306290691	12.8010511485872	16.40604084865145	80.12347876037568	0	0
4.699999999999988	-7.07500307246445	-6.977799592980787	40.80132151474254	0	0.9399999999999999	0	27.75752285948391	-8.93840784830504	-8.047716103691586	32.61001133549334	0.569152066917032	0	0	0	27.75752285948391	-8.93840784830504	-8.047716103691586	32.61001133549334	0.569152066917032	0	0	0	-8.779085007066035	-4.409347497379584	3.792353297140521	78.30705991328495	17.83013335664632	19.52553168576594	28.86457743378975	75.0102852041194	0	0	29.19018435353673	3.102614361576516	12.65238928213022	16.39448369241818	80.1427707568681	0	0
4.719999999999987	-7.04410893783668	-7.074993176104468	41.15374325012608	0	0.9399999999999999	0	27.8176594670003	-8.947348306387648	-8.059686218709983	32.68075047489313	0.5703866978095856	0	0	0	27.8176594670003	-8.947348306387648	-8.059686218709983	32.68075047489313	0.5703866978095856	0	0	0	-8.814859578800654	-4.504804576377007	3.827114165837644	78.30669350411283	19.2327548905576	21.49975289451622	27.68816436772283	74.95667293185151	0	0	29.30889559715133	3.132987367885571	12.99801779953961	16.37354226715519	80.12414595744508	0	0
4.739999999999987	-7.024608682139312	-7.096896138655649	41.44026087504106	0	0.9399999999999999	0	27.82513442299869	-8.948867171183933	-8.061482958211753	32.68772194539086	0.5705083729234766	0	0	0	27.82513442299869	-8.948867171183933	-8.061482958211753	32.68772194539086	0.5705083729234766	0	0	0	-8.834049899991014	-4.486395555599792	3.628094307663264	78.3766331844851	20.42726080960528	23.48176816273781	27.11197284656183	73.52853640832876	0	0	29.30278359085211	3.114735220158638	13.0889029832077	16.44888940095987	80.01618032382935	0	0
4.759999999999986	-6.995060326786481	-7.141597908283826	41.8187482986145	0	0.9399999999999999	0	27.83614345044846	-8.951104716849192	-8.064130135346318	32.69797710356865	0.5706873591989919	0	0	0	27.83614345044846	-8.951104716849192	-8.064130135346318	32.69797710356865	0.5706873591989919	0	0	0	-8.86324047736669	-4.487059715424244	3.415268368577246	77.84713712838959	22.12354154539153	25.21370040967441	25.71014319609837	75.43114233089753	0	0	29.31133519230749	3.158050587520518	13.2475877606431	16.44225870689598	80.02890200773994	0	0
